<svg xmlns="http://www.w3.org/2000/svg" viewBox="0 0 124.29 22.36"><defs><style>.cls-1{fill:#fff;}</style></defs><g id="Calque_2" data-name="Calque 2"><g id="Logo"><path class="cls-1" d="M101.84,6.38H99.66v-1h2.18V2.57a2.16,2.16,0,0,1,.93-2A7.34,7.34,0,0,1,106.19,0h4.11V1h-3a4.42,4.42,0,0,0-2.28.41,1.57,1.57,0,0,0-.61,1.43v2.5h4.41l-.25,1h-4.16V21.93h-2.53Z"/><path class="cls-1" d="M109.89,21.93l4.72-8.5L110,5.36h2.29l4.61,8.07-4.72,8.5Zm12.17,0-4.72-8.5L122,5.36h2.23l-4.57,8.07,4.67,8.5Z"/><path class="cls-1" d="M4.23,22.36H0L7.71,2.83C8.53.78,10,0,12.34,0s3.77.78,4.55,2.83l7.42,19.53H20.05L13.38,4.69a1.06,1.06,0,0,0-1.08-.75,1.1,1.1,0,0,0-1.1.75Z"/><path class="cls-1" d="M31.41.39V9.7h2.12c3.77,0,4.39-.33,5.63-2.74L42.51.39h4.13L43.19,7.23a7.51,7.51,0,0,1-3.81,4c2,.55,3.06,1.69,4.37,4.23l3.54,6.9H43l-3.36-6.51c-1.2-2.34-2-2.67-6.11-2.67H31.41v9.18H27.57V.39Z"/><path class="cls-1" d="M60.41,17.67a1.12,1.12,0,0,0,1.11.75,1,1,0,0,0,1.07-.75L69.27,0h4.26L66.11,19.53c-.78,2-2.28,2.83-4.56,2.83s-3.81-.78-4.62-2.83L49.22,0h4.23Z"/><path class="cls-1" d="M93.74.39V4.23H82.48c-2,0-2.86,1.07-2.86,2.6,0,1.34.68,2.61,3.25,2.61H88c6,0,7.38,3.32,7.38,6.48,0,3.71-2,6.44-7,6.44H76.17V18.52H88.54c2.08,0,3-1.14,3-2.73,0-1.44-.75-2.74-3.45-2.74H83c-5.86,0-7.22-3.29-7.22-6.35,0-3.64,2-6.31,6.83-6.31Z"/></g></g></svg>