<svg width="23" height="15" viewBox="0 0 23 15" fill="none" xmlns="http://www.w3.org/2000/svg">
<path d="M9.36111 6.72113C10.5757 6.08972 11.2097 5.13431 11.2097 3.64719C11.2097 0.714483 9.2007 0 6.88229 0H0.5V14.7217H7.06181C9.52153 14.7217 11.8323 13.4381 11.8323 10.4472C11.8323 8.59873 11.0264 7.23207 9.36111 6.72113ZM3.47535 2.51315H6.26736C7.34063 2.51315 8.30694 2.84132 8.30694 4.19551C8.30694 5.44586 7.55451 5.94849 6.49271 5.94849H3.47535V2.51315ZM6.65694 12.221H3.47535V8.16671H6.71806C8.02813 8.16671 8.85695 8.76073 8.85695 10.2686C8.85695 11.7557 7.86771 12.221 6.65694 12.221ZM20.3497 2.22238H14.8611V0.772639H20.3497V2.22238ZM22.5 9.54583C22.5 6.39297 20.8042 3.7635 17.7295 3.7635C14.7427 3.7635 12.7146 6.20604 12.7146 9.4046C12.7146 12.7236 14.6358 15 17.7295 15C20.0708 15 21.5872 13.8535 22.3167 11.4151H19.941C19.6851 12.3248 18.6309 12.8067 17.8135 12.8067C16.2361 12.8067 15.4073 11.8014 15.4073 10.0942H22.4771C22.4885 9.91969 22.5 9.73276 22.5 9.54583ZM15.4111 8.24979C15.499 6.8499 16.3545 5.97341 17.6455 5.97341C18.9976 5.97341 19.6774 6.83744 19.792 8.24979H15.4111Z" fill="white"/>
</svg>
