<svg width="23" height="21" viewBox="0 0 23 21" fill="none" xmlns="http://www.w3.org/2000/svg">
<path d="M2.46398 6.00517H0.570312V5.06681H2.46398V2.43005C2.43012 2.06769 2.48728 1.70216 2.62944 1.37192C2.7716 1.04167 2.9935 0.758903 3.27183 0.553349C4.20834 0.121346 5.22704 -0.0620573 6.24263 0.0184897H9.81281V0.95684H7.20684C6.52674 0.892593 5.84308 1.0254 5.2263 1.34156C5.03774 1.49629 4.88973 1.70138 4.79682 1.93666C4.70391 2.17194 4.66931 2.4293 4.69643 2.6834V5.02928H8.5272L8.31003 5.96763H4.69643V20.5965H2.49872L2.46398 6.00517Z" fill="white"/>
<path d="M9.81281 20.5965L13.9129 12.6206L9.90836 5.04807H11.8976L15.9021 12.6206L11.802 20.5965H9.81281ZM20.3844 20.5965L16.2843 12.6206L20.3322 5.04807H22.2693L18.2996 12.6206L22.3562 20.5965H20.3844Z" fill="white"/>
</svg>
