<svg width="16" height="15" viewBox="0 0 16 15" fill="none" xmlns="http://www.w3.org/2000/svg">
<path d="M8.00167 3.65419C5.8734 3.65419 4.15672 5.37125 4.15672 7.5C4.15672 9.62875 5.8734 11.3458 8.00167 11.3458C10.13 11.3458 11.8466 9.62875 11.8466 7.5C11.8466 5.37125 10.13 3.65419 8.00167 3.65419ZM8.00167 10.0003C6.62633 10.0003 5.50195 8.879 5.50195 7.5C5.50195 6.121 6.62298 4.99972 8.00167 4.99972C9.38037 4.99972 10.5014 6.121 10.5014 7.5C10.5014 8.879 9.37702 10.0003 8.00167 10.0003V10.0003ZM12.9007 3.49688C12.9007 3.99559 12.4992 4.3939 12.0039 4.3939C11.5053 4.3939 11.1071 3.99225 11.1071 3.49688C11.1071 3.00151 11.5086 2.59985 12.0039 2.59985C12.4992 2.59985 12.9007 3.00151 12.9007 3.49688ZM15.4473 4.40729C15.3904 3.20568 15.116 2.1413 14.2359 1.26436C13.3592 0.387426 12.295 0.112964 11.0937 0.0527167C9.85555 -0.0175722 6.14445 -0.0175722 4.9063 0.0527167C3.70831 0.109617 2.64417 0.384079 1.76408 1.26102C0.883993 2.13796 0.612939 3.20233 0.552705 4.40394C0.482432 5.64236 0.482432 9.35429 0.552705 10.5927C0.609593 11.7943 0.883993 12.8587 1.76408 13.7356C2.64417 14.6126 3.70496 14.887 4.9063 14.9473C6.14445 15.0176 9.85555 15.0176 11.0937 14.9473C12.295 14.8904 13.3592 14.6159 14.2359 13.7356C15.1127 12.8587 15.3871 11.7943 15.4473 10.5927C15.5176 9.35429 15.5176 5.64571 15.4473 4.40729V4.40729ZM13.8477 11.9215C13.5867 12.5775 13.0814 13.083 12.4222 13.3474C11.435 13.739 9.09258 13.6486 8.00167 13.6486C6.91076 13.6486 4.56497 13.7356 3.58115 13.3474C2.92526 13.0863 2.41997 12.5809 2.15561 11.9215C1.76408 10.9341 1.85443 8.59115 1.85443 7.5C1.85443 6.40885 1.76743 4.06253 2.15561 3.07849C2.41662 2.42246 2.92192 1.91705 3.58115 1.65263C4.56832 1.26102 6.91076 1.35139 8.00167 1.35139C9.09258 1.35139 11.4384 1.26436 12.4222 1.65263C13.0781 1.9137 13.5834 2.41911 13.8477 3.07849C14.2393 4.06588 14.1489 6.40885 14.1489 7.5C14.1489 8.59115 14.2393 10.9375 13.8477 11.9215Z" fill="white"/>
</svg>
