<svg width="16" height="15" viewBox="0 0 16 15" fill="none" xmlns="http://www.w3.org/2000/svg">
<path d="M3.85759 15H0.747768V4.98527H3.85759V15ZM2.301 3.61917C1.30658 3.61917 0.5 2.79549 0.5 1.80104C0.5 1.32338 0.689748 0.865275 1.0275 0.527514C1.36526 0.189752 1.82335 0 2.301 0C2.77866 0 3.23675 0.189752 3.57451 0.527514C3.91226 0.865275 4.10201 1.32338 4.10201 1.80104C4.10201 2.79549 3.29509 3.61917 2.301 3.61917ZM15.4967 15H12.3935V10.1249C12.3935 8.96303 12.3701 7.47305 10.7767 7.47305C9.15982 7.47305 8.91205 8.73535 8.91205 10.0412V15H5.80558V4.98527H8.78817V6.35137H8.8317C9.24687 5.56452 10.261 4.73415 11.7741 4.73415C14.9214 4.73415 15.5 6.80674 15.5 9.49876V15H15.4967Z" fill="white"/>
</svg>
