<svg width="16" height="19" viewBox="0 0 16 19" fill="none" xmlns="http://www.w3.org/2000/svg">
<path d="M10.2452 4.38068L10.2482 4.38527H10.2422L9.57545 5.55689L9.49701 5.41923L9.494 5.41464L8.74885 4.10537L8.74584 4.10078L8.00069 2.79151L7.25554 4.10078L7.25253 4.10537L6.50738 5.41464L6.50436 5.41923L6.42593 5.55689L5.75922 4.38527H5.75318L5.7562 4.38068L5.67776 4.24303L5.7562 4.10537L5.75318 4.10078H5.75922L6.50436 2.79151L6.50135 2.78539H6.50738L7.25253 1.47765L7.24951 1.47306H7.25554L8.00069 0.163788L8.74584 1.47306H8.75187L8.74885 1.47765L9.494 2.78539H9.50003L9.49701 2.79151L10.2422 4.10078H10.2482L10.2452 4.10537L10.3236 4.24303L10.2452 4.38068Z" fill="white"/>
<path d="M8.74893 7.00994L8.75194 7.01453H8.74591L8.0792 8.18614L8.00076 8.3238L7.92233 8.18614L7.25562 7.01453H7.24958L7.2526 7.00994L7.17416 6.87228L7.2526 6.73462L7.24958 6.72851H7.25562L8.00076 5.41924L8.74591 6.72851H8.75194L8.74893 6.7331L8.82736 6.87075L8.74893 7.00994Z" fill="white"/>
<path d="M13.2364 14.6132H11.9015L12.4883 13.5854L12.4898 13.5808L12.5682 13.4416L13.2364 14.6132Z" fill="white"/>
<path d="M15.4854 13.2993L15.4824 13.3039L14.7373 14.6132L14.7342 14.6178L14.7327 14.6132L13.9861 13.3039L13.9831 13.2993L13.3163 12.1277L13.9831 10.9561L13.9861 10.9515L14.0645 10.8139L14.7327 11.9855H14.7373L14.7342 11.9901L15.4794 13.2993H15.4854Z" fill="white"/>
<path d="M4.10006 14.6132H2.76514L3.43335 13.4416L3.51179 13.5808L3.5133 13.5854L4.10006 14.6132Z" fill="white"/>
<path d="M2.68527 12.1277L2.01856 13.2993L2.01555 13.3039L1.26889 14.6132L1.26738 14.6193L1.26437 14.6132L0.519222 13.3039L0.516205 13.2993H0.522238L1.26738 11.9901L1.26437 11.9855H1.26889L1.93711 10.8139L2.01555 10.9515V10.953L2.01856 10.9561L2.68527 12.1277Z" fill="white"/>
<path d="M12.5682 5.55689L12.4897 5.69607L12.4928 5.70066H12.4882L11.82 6.87228L11.7416 7.00993L11.7446 7.01452H11.7386L11.0734 8.18614L10.9949 8.32379L10.9964 8.32838H10.9904L10.3237 9.5L10.2453 9.63765L10.2483 9.64377H10.2422L9.57553 10.8154L9.49709 10.953L9.50011 10.9561H9.49408L8.82737 12.1277L8.74893 12.2654L8.75195 12.2715H8.74591L8.00077 13.5808L7.25562 12.2715H7.24959L7.2526 12.2654L7.17417 12.1277L6.50746 10.9561H6.50142L6.50444 10.9515L6.426 10.8139L5.7593 9.64377H5.75326L5.75628 9.63765L5.67784 9.5L5.01113 8.32838H5.0051L5.00661 8.32379L4.92817 8.18614L4.26297 7.01452H4.25694L4.25995 7.00993L4.18152 6.87228L3.5133 5.70066H3.50877L3.51179 5.69607L3.43335 5.55689L2.76514 4.38527H4.25694L4.25995 4.38068L4.26146 4.38527L4.92817 5.55689L5.00661 5.69607L5.00962 5.70066L5.67784 6.87228L5.75628 7.00993L5.7593 7.01452L6.426 8.18614L6.50444 8.32379L6.50746 8.32838L7.17417 9.5L7.2526 9.63765L7.25562 9.64377L7.92233 10.8139L8.00077 10.9515L8.0792 10.8139L8.74591 9.64377L8.74893 9.63765L8.82737 9.5L9.49408 8.32838L9.49709 8.32379L9.57553 8.18461L10.2422 7.01452L10.2453 7.00993L10.3237 6.87075L10.9904 5.70066L10.9934 5.69607L11.0719 5.55689L11.7386 4.38527L11.7416 4.38068L11.7446 4.38527H13.2364L12.5682 5.55689Z" fill="white"/>
<path d="M15.4793 5.70066L14.7342 7.00993L14.7372 7.01452H14.7327L14.0645 8.18614L13.986 8.32379L13.9891 8.32838H13.983L13.3163 9.5L13.2379 9.63765L13.2409 9.64377H13.2349L12.5682 10.8139L12.4897 10.9515L12.4927 10.9561H12.4882L11.82 12.1277L11.7416 12.2654L11.7446 12.2715H11.7385L11.0718 13.4431L10.9934 13.5808L10.9964 13.5854H10.9904L10.3237 14.7554L10.2452 14.8946L10.2482 14.8992H10.2422L9.49706 16.2085L9.50008 16.2131H9.49405L8.7489 17.5223L8.75192 17.5269H8.74588L8.00074 18.8362L7.25559 17.5269H7.24956L7.25258 17.5223L6.50743 16.2131H6.5014L6.50441 16.2085L5.75927 14.8992H5.75323L5.75625 14.8946L5.67781 14.7554L5.0111 13.5854H5.00507L5.00658 13.5808L4.92814 13.4416L4.26294 12.2715H4.25691L4.25993 12.2654L4.18149 12.1277L3.51327 10.9561H3.50875L3.51176 10.9515L3.43333 10.8139L2.76511 9.64377H2.76058L2.7636 9.63765L2.68516 9.5L2.01845 8.32838H2.01242L2.01544 8.32379L1.937 8.18614L1.26878 7.01452H1.26426L1.26728 7.00993L0.522129 5.70066H0.514587L0.519113 5.69454L1.26426 4.38527L1.26728 4.38068L1.26878 4.38527L2.01544 5.69607L2.01845 5.70066L2.68516 6.87228L2.7636 7.00993L2.76511 7.01452L3.43333 8.18614L3.51176 8.32379L3.51478 8.32838L4.18149 9.5L4.25993 9.63765L4.26294 9.64377L4.92814 10.8139L5.00658 10.9515L5.0111 10.9561L5.67781 12.1277L5.75625 12.2654L5.75927 12.2715L6.42598 13.4416L6.50441 13.5808L6.50743 13.5854L7.25258 14.8946L7.25559 14.8992L8.00074 16.2085L8.74588 14.8992L8.7489 14.8946L9.49405 13.5854L9.49706 13.5808L9.5755 13.4416L10.2422 12.2715L10.2452 12.2654L10.3237 12.1277L10.9919 10.9561L10.9949 10.9515L11.0733 10.8139L11.7385 9.64377L11.7416 9.63765L11.82 9.5L12.4882 8.32838L12.4897 8.32379L12.5682 8.18614L13.2364 7.01452L13.2379 7.00993L13.3163 6.87228L13.983 5.70066L13.986 5.69607L14.7327 4.38527L14.7342 4.38068L14.7372 4.38527L15.4824 5.69607L15.4854 5.70066H15.4793Z" fill="white"/>
</svg>
