<svg xmlns="http://www.w3.org/2000/svg" viewBox="0 0 99.25 122.08"><defs><style>.cls-1{fill:#fff;}</style></defs><g id="Calque_2" data-name="Calque 2"><g id="Logo"><polygon class="cls-1" points="64.51 27.57 64.53 27.6 64.49 27.6 60.07 35.26 59.55 34.36 59.53 34.33 54.59 25.77 54.57 25.74 49.63 17.18 44.69 25.74 44.67 25.77 39.73 34.33 39.71 34.36 39.19 35.26 34.77 27.6 34.73 27.6 34.75 27.57 34.23 26.67 34.75 25.77 34.73 25.74 34.77 25.74 39.71 17.18 39.69 17.14 39.73 17.14 44.67 8.59 44.65 8.56 44.69 8.56 49.63 0 54.57 8.56 54.61 8.56 54.59 8.59 59.53 17.14 59.57 17.14 59.55 17.18 64.49 25.74 64.53 25.74 64.51 25.77 65.03 26.67 64.51 27.57"/><polygon class="cls-1" points="54.59 44.76 54.61 44.79 54.57 44.79 50.15 52.45 49.63 53.35 49.11 52.45 44.69 44.79 44.65 44.79 44.67 44.76 44.15 43.86 44.67 42.96 44.65 42.92 44.69 42.92 49.63 34.36 54.57 42.92 54.61 42.92 54.59 42.95 55.11 43.85 54.59 44.76"/><polygon class="cls-1" points="84.34 94.47 75.49 94.47 79.38 87.75 79.39 87.72 79.91 86.81 84.34 94.47"/><polygon class="cls-1" points="99.25 85.88 99.23 85.91 94.29 94.47 94.27 94.5 94.26 94.47 89.31 85.91 89.29 85.88 84.87 78.22 89.29 70.56 89.31 70.53 89.83 69.63 94.26 77.29 94.29 77.29 94.27 77.32 99.21 85.88 99.25 85.88"/><polygon class="cls-1" points="23.77 94.47 14.92 94.47 19.35 86.81 19.87 87.72 19.88 87.75 23.77 94.47"/><polygon class="cls-1" points="14.39 78.22 9.97 85.88 9.95 85.91 5 94.47 4.99 94.51 4.97 94.47 0.03 85.91 0.01 85.88 0.05 85.88 4.99 77.32 4.97 77.29 5 77.29 9.43 69.63 9.95 70.53 9.95 70.54 9.97 70.56 14.39 78.22"/><polygon class="cls-1" points="79.91 35.26 79.39 36.17 79.41 36.2 79.38 36.2 74.95 43.86 74.43 44.76 74.45 44.79 74.41 44.79 70 52.45 69.48 53.35 69.49 53.38 69.45 53.38 65.03 61.04 64.51 61.94 64.53 61.98 64.49 61.98 60.07 69.64 59.55 70.54 59.57 70.56 59.53 70.56 55.11 78.22 54.59 79.12 54.61 79.16 54.57 79.16 49.63 87.72 44.69 79.16 44.65 79.16 44.67 79.12 44.15 78.22 39.73 70.56 39.69 70.56 39.71 70.53 39.19 69.63 34.77 61.98 34.73 61.98 34.75 61.94 34.23 61.04 29.81 53.38 29.77 53.38 29.78 53.35 29.26 52.45 24.85 44.79 24.81 44.79 24.83 44.76 24.31 43.86 19.88 36.2 19.85 36.2 19.87 36.17 19.35 35.26 14.92 27.6 24.81 27.6 24.83 27.57 24.84 27.6 29.26 35.26 29.78 36.17 29.8 36.2 34.23 43.86 34.75 44.76 34.77 44.79 39.19 52.45 39.71 53.35 39.73 53.38 44.15 61.04 44.67 61.94 44.69 61.98 49.11 69.63 49.63 70.53 50.15 69.63 54.57 61.98 54.59 61.94 55.11 61.04 59.53 53.38 59.55 53.35 60.07 52.44 64.49 44.79 64.51 44.76 65.03 43.85 69.45 36.2 69.47 36.17 69.99 35.26 74.41 27.6 74.43 27.57 74.45 27.6 84.34 27.6 79.91 35.26"/><polygon class="cls-1" points="99.21 36.2 94.27 44.76 94.29 44.79 94.26 44.79 89.83 52.45 89.31 53.35 89.33 53.38 89.29 53.38 84.87 61.04 84.35 61.94 84.37 61.98 84.33 61.98 79.91 69.63 79.39 70.53 79.41 70.56 79.38 70.56 74.95 78.22 74.43 79.12 74.45 79.16 74.41 79.16 69.99 86.82 69.47 87.72 69.49 87.75 69.45 87.75 65.03 95.4 64.51 96.31 64.53 96.34 64.49 96.34 59.55 104.9 59.57 104.93 59.53 104.93 54.59 113.49 54.61 113.52 54.57 113.52 49.63 122.08 44.69 113.52 44.65 113.52 44.67 113.49 39.73 104.93 39.69 104.93 39.71 104.9 34.77 96.34 34.73 96.34 34.75 96.31 34.23 95.4 29.81 87.75 29.77 87.75 29.78 87.72 29.26 86.81 24.85 79.16 24.81 79.16 24.83 79.12 24.31 78.22 19.88 70.56 19.85 70.56 19.87 70.53 19.35 69.63 14.92 61.98 14.89 61.98 14.91 61.94 14.39 61.04 9.97 53.38 9.93 53.38 9.95 53.35 9.43 52.45 5 44.79 4.97 44.79 4.99 44.76 0.05 36.2 0 36.2 0.03 36.16 4.97 27.6 4.99 27.57 5 27.6 9.95 36.17 9.97 36.2 14.39 43.86 14.91 44.76 14.92 44.79 19.35 52.45 19.87 53.35 19.89 53.38 24.31 61.04 24.83 61.94 24.85 61.98 29.26 69.63 29.78 70.53 29.81 70.56 34.23 78.22 34.75 79.12 34.77 79.16 39.19 86.81 39.71 87.72 39.73 87.75 44.67 96.31 44.69 96.34 49.63 104.9 54.57 96.34 54.59 96.31 59.53 87.75 59.55 87.72 60.07 86.81 64.49 79.16 64.51 79.12 65.03 78.22 69.46 70.56 69.48 70.53 70 69.63 74.41 61.98 74.43 61.94 74.95 61.04 79.38 53.38 79.39 53.35 79.91 52.45 84.34 44.79 84.35 44.76 84.87 43.86 89.29 36.2 89.31 36.17 94.26 27.6 94.27 27.57 94.29 27.6 99.23 36.17 99.25 36.2 99.21 36.2"/></g></g></svg>