<svg width="77" height="92" viewBox="0 0 77 92" fill="none" xmlns="http://www.w3.org/2000/svg">
<path d="M49.9917 20.6152L50.0072 20.6376H49.9762L46.551 26.3653L46.148 25.6923L46.1325 25.6699L42.3043 19.2692L42.2888 19.2468L38.4606 12.8462L34.6323 19.2468L34.6168 19.2692L30.7886 25.6699L30.7731 25.6923L30.3701 26.3653L26.9449 20.6376H26.9139L26.9294 20.6152L26.5264 19.9422L26.9294 19.2692L26.9139 19.2468H26.9449L30.7731 12.8462L30.7576 12.8162H30.7886L34.6168 6.42308L34.6013 6.40065H34.6323L38.4606 0L42.2888 6.40065H42.3198L42.3043 6.42308L46.1325 12.8162H46.1635L46.148 12.8462L49.9762 19.2468H50.0072L49.9917 19.2692L50.3947 19.9422L49.9917 20.6152Z" fill="#0E4ECB"/>
<path d="M42.3043 33.4688L42.3198 33.4912H42.2888L38.8635 39.2189L38.4605 39.8919L38.0576 39.2189L34.6323 33.4912H34.6013L34.6168 33.4688L34.2138 32.7958L34.6168 32.1228L34.6013 32.0929H34.6323L38.4605 25.6923L42.2888 32.0929H42.3198L42.3043 32.1154L42.7072 32.7883L42.3043 33.4688Z" fill="white"/>
<path d="M65.3589 70.6389H58.5006L61.5151 65.6141L61.5229 65.5917L61.9259 64.9113L65.3589 70.6389Z" fill="#0E4ECB"/>
<path d="M76.9133 64.2158L76.8978 64.2383L73.0696 70.6389L73.0541 70.6613L73.0464 70.6389L69.2104 64.2383L69.1949 64.2158L65.7696 58.4881L69.1949 52.7605L69.2104 52.738L69.6134 52.0651L73.0464 57.7927H73.0696L73.0541 57.8152L76.8823 64.2158H76.9133Z" fill="#0E4ECB"/>
<path d="M18.4205 70.6389H11.5622L14.9952 64.9113L15.3982 65.5917L15.4059 65.6141L18.4205 70.6389Z" fill="#0E4ECB"/>
<path d="M11.1514 58.4881L7.72612 64.2158L7.71062 64.2383L3.87464 70.6389L3.86689 70.6688L3.85139 70.6389L0.0231588 64.2383L0.00765991 64.2158H0.0386577L3.86689 57.8152L3.85139 57.7927H3.87464L7.30765 52.0651L7.71062 52.738V52.7455L7.72612 52.7605L11.1514 58.4881Z" fill="#0E4ECB"/>
<path d="M61.9259 26.3653L61.5229 27.0458L61.5384 27.0682H61.5152L58.0822 32.7959L57.6792 33.4688L57.6947 33.4913H57.6637L54.2462 39.219L53.8432 39.8919L53.851 39.9144H53.82L50.3947 45.642L49.9917 46.315L50.0072 46.3449H49.9762L46.551 52.0726L46.148 52.7456L46.1635 52.7605H46.1325L42.7073 58.4882L42.3043 59.1612L42.3198 59.1911H42.2888L38.4605 65.5917L34.6323 59.1911H34.6013L34.6168 59.1612L34.2139 58.4882L30.7886 52.7605H30.7576L30.7731 52.7381L30.3701 52.0651L26.9449 46.3449H26.9139L26.9294 46.315L26.5264 45.642L23.1011 39.9144H23.0701L23.0779 39.8919L22.6749 39.219L19.2574 33.4913H19.2264L19.2419 33.4688L18.8389 32.7959L15.4059 27.0682H15.3827L15.3982 27.0458L14.9952 26.3653L11.5622 20.6376H19.2264L19.2419 20.6152L19.2497 20.6376L22.6749 26.3653L23.0779 27.0458L23.0934 27.0682L26.5264 32.7959L26.9294 33.4688L26.9449 33.4913L30.3701 39.219L30.7731 39.8919L30.7886 39.9144L34.2139 45.642L34.6168 46.315L34.6323 46.3449L38.0576 52.0651L38.4605 52.7381L38.8635 52.0651L42.2888 46.3449L42.3043 46.315L42.7073 45.642L46.1325 39.9144L46.148 39.8919L46.551 39.2115L49.9762 33.4913L49.9917 33.4688L50.3947 32.7884L53.82 27.0682L53.8355 27.0458L54.2384 26.3653L57.6637 20.6376L57.6792 20.6152L57.6947 20.6376H65.3589L61.9259 26.3653Z" fill="#0E4ECB"/>
<path d="M76.8823 27.0682L73.0541 33.4688L73.0696 33.4913H73.0464L69.6134 39.219L69.2104 39.8919L69.2259 39.9144H69.1949L65.7696 45.642L65.3667 46.315L65.3822 46.3449H65.3512L61.9259 52.0651L61.5229 52.7381L61.5384 52.7605H61.5152L58.0822 58.4882L57.6792 59.1612L57.6947 59.1911H57.6637L54.2384 64.9188L53.8355 65.5917L53.851 65.6141H53.82L50.3947 71.3344L49.9917 72.0148L50.0072 72.0372H49.9762L46.148 78.4379L46.1635 78.4603H46.1325L42.3043 84.861L42.3198 84.8834H42.2888L38.4605 91.284L34.6323 84.8834H34.6013L34.6168 84.861L30.7886 78.4603H30.7576L30.7731 78.4379L26.9449 72.0372H26.9139L26.9294 72.0148L26.5264 71.3344L23.1011 65.6141H23.0701L23.0779 65.5917L22.6749 64.9113L19.2574 59.1911H19.2264L19.2419 59.1612L18.8389 58.4882L15.4059 52.7605H15.3827L15.3982 52.7381L14.9952 52.0651L11.5622 46.3449H11.5389L11.5544 46.315L11.1515 45.642L7.72621 39.9144H7.69521L7.71071 39.8919L7.30774 39.219L3.87473 33.4913H3.85148L3.86698 33.4688L0.0387473 27.0682H0L0.0232484 27.0383L3.85148 20.6376L3.86698 20.6152L3.87473 20.6376L7.71071 27.0458L7.72621 27.0682L11.1515 32.7959L11.5544 33.4688L11.5622 33.4913L14.9952 39.219L15.3982 39.8919L15.4137 39.9144L18.8389 45.642L19.2419 46.315L19.2574 46.3449L22.6749 52.0651L23.0779 52.7381L23.1011 52.7605L26.5264 58.4882L26.9294 59.1612L26.9449 59.1911L30.3701 64.9113L30.7731 65.5917L30.7886 65.6141L34.6168 72.0148L34.6323 72.0372L38.4605 78.4379L42.2888 72.0372L42.3043 72.0148L46.1325 65.6141L46.148 65.5917L46.551 64.9113L49.9762 59.1911L49.9917 59.1612L50.3947 58.4882L53.8277 52.7605L53.8432 52.7381L54.2462 52.0651L57.6637 46.3449L57.6792 46.315L58.0822 45.642L61.5152 39.9144L61.5229 39.8919L61.9259 39.219L65.3589 33.4913L65.3667 33.4688L65.7696 32.7959L69.1949 27.0682L69.2104 27.0458L73.0464 20.6376L73.0541 20.6152L73.0696 20.6376L76.8979 27.0458L76.9133 27.0682H76.8823Z" fill="#0E4ECB"/>
</svg>
